<?xml version="1.0" standalone="no"?>
<!DOCTYPE svg PUBLIC "-//W3C//DTD SVG 20010904//EN"
 "http://www.w3.org/TR/2001/REC-SVG-20010904/DTD/svg10.dtd">
<svg version="1.0" xmlns="http://www.w3.org/2000/svg"
 width="1024.000000pt" height="1024.000000pt" viewBox="0 0 1024.000000 1024.000000"
 preserveAspectRatio="xMidYMid meet">
<metadata>
Created by potrace 1.14, written by Peter Selinger 2001-2017
</metadata>
<g transform="translate(0.000000,1024.000000) scale(0.100000,-0.100000)"
fill="#000000" stroke="none">
<path d="M0 5120 l0 -5120 5120 0 5120 0 0 5120 0 5120 -5120 0 -5120 0 0
-5120z m5297 2719 c240 -124 927 -481 1108 -576 88 -46 171 -95 185 -109 24
-24 25 -29 32 -217 9 -263 9 -576 1 -742 -6 -138 -7 -139 -37 -171 -18 -19
-161 -102 -346 -202 -550 -296 -871 -467 -1005 -537 l-131 -67 -129 70 c-136
73 -463 251 -700 382 -77 42 -223 121 -324 176 -207 111 -261 153 -261 203 0
18 4 41 10 51 13 25 92 54 122 45 30 -9 282 -145 964 -519 177 -97 325 -176
328 -176 14 0 1246 662 1289 692 l27 19 0 429 0 429 -52 29 c-29 16 -168 88
-308 160 -140 72 -410 212 -600 311 -190 100 -353 181 -362 181 -10 0 -37 -11
-60 -24 -24 -12 -160 -83 -303 -157 -143 -73 -277 -143 -298 -155 l-38 -21
249 -137 c138 -75 257 -136 266 -136 10 0 53 19 96 41 64 34 86 40 112 35 17
-3 163 -75 322 -160 160 -85 347 -182 416 -217 173 -89 170 -83 170 -306 0
-206 9 -189 -145 -275 -189 -104 -702 -378 -736 -392 -19 -8 -47 -12 -64 -8
-17 3 -140 64 -275 137 -135 72 -317 169 -405 214 -161 84 -225 130 -225 163
0 22 -16 24 -24 3 -4 -12 -49 6 -217 91 -252 126 -284 145 -309 187 -18 29
-20 51 -20 277 0 306 -9 286 164 372 l125 62 53 -37 c29 -20 69 -49 88 -65
l34 -29 -131 -67 c-118 -60 -131 -69 -137 -97 -7 -38 -8 -256 0 -284 3 -14 60
-49 184 -112 99 -51 182 -93 185 -93 3 0 5 26 5 58 0 105 10 115 218 218 100
50 184 88 186 85 6 -9 66 -161 66 -165 0 -3 -57 -34 -127 -71 -71 -37 -131
-70 -134 -73 -4 -4 -10 -46 -13 -94 l-7 -87 138 -70 c76 -38 238 -123 361
-190 122 -66 227 -121 233 -121 6 0 122 60 257 134 136 73 300 161 365 195
l117 62 0 79 0 78 -157 82 c-87 45 -253 133 -368 196 l-211 113 -91 -44 c-51
-25 -101 -45 -111 -45 -24 0 -609 313 -637 341 -18 17 -20 35 -23 154 -3 131
-3 134 20 148 32 21 746 397 783 413 53 23 81 16 242 -67z m-1359 -2293 c48
-24 330 -175 627 -335 297 -160 545 -291 552 -291 14 0 197 95 718 375 605
324 552 298 592 290 60 -11 137 -50 166 -84 l27 -33 0 -368 c0 -261 -3 -377
-12 -395 -14 -32 -14 -32 -348 -210 -1144 -611 -1118 -598 -1164 -593 -29 4
-105 38 -232 105 -104 55 -247 131 -319 168 -71 37 -134 72 -139 76 -6 5 -33
9 -62 9 -77 0 -151 42 -185 103 -22 42 -38 55 -132 107 -59 33 -170 91 -246
130 -120 61 -141 75 -150 102 -7 20 -11 159 -11 400 l0 368 33 35 c30 32 137
83 180 84 9 1 57 -19 105 -43z m-1240 -2643 l2 -223 -50 0 -50 0 0 123 0 122
-60 -100 c-52 -88 -63 -100 -89 -101 -26 -1 -33 6 -74 75 -79 132 -76 132 -77
4 l0 -113 -50 0 -50 0 0 215 0 215 44 0 44 0 77 -130 c43 -71 81 -130 86 -130
5 0 28 34 51 75 24 42 60 103 81 136 36 58 39 60 75 57 l37 -3 3 -222z m430
175 l3 -48 -110 0 -111 0 0 -40 0 -39 97 -3 c106 -3 113 -8 99 -64 -6 -23 -9
-24 -101 -24 l-95 0 0 -40 0 -39 107 -3 107 -3 9 -32 c18 -63 15 -64 -165 -61
l-163 3 -3 210 c-1 115 0 215 3 222 3 11 40 13 162 11 l158 -3 3 -47z m352 42
c67 -19 67 -19 24 -108 0 -1 -17 5 -37 13 -54 22 -130 20 -152 -5 -17 -19 -17
-21 -1 -39 10 -10 44 -24 79 -31 105 -20 143 -48 162 -116 12 -43 -31 -111
-88 -141 -37 -19 -136 -20 -209 -3 -57 13 -58 14 -58 49 0 58 8 62 70 46 94
-25 180 -16 180 19 0 23 -26 37 -107 57 -94 24 -120 40 -140 87 -12 28 -13 44
-4 72 13 42 57 87 97 100 40 12 142 12 184 0z m441 -17 c20 -19 20 -22 4 -52
-21 -41 -33 -45 -78 -26 -75 31 -161 10 -137 -34 6 -12 38 -26 86 -39 42 -12
87 -28 100 -37 58 -38 69 -131 22 -182 -35 -39 -80 -53 -162 -53 -134 0 -187
39 -137 101 18 22 19 22 54 6 67 -32 190 -15 175 24 -3 8 -47 27 -97 43 -72
23 -98 36 -121 63 -55 63 -30 155 53 194 59 28 207 23 238 -8z m396 -98 c86
-193 134 -307 131 -310 -3 -4 -65 -8 -88 -6 -8 1 -23 21 -33 46 l-19 45 -97 0
-98 0 -23 -50 c-23 -50 -24 -50 -72 -50 -27 0 -48 5 -48 11 0 5 24 65 54 132
29 67 68 158 86 202 44 106 44 106 104 103 l50 -3 53 -120z m491 110 c20 -9
47 -26 60 -37 l22 -22 -31 -32 -32 -33 -27 21 c-83 61 -200 10 -217 -95 -15
-93 89 -172 181 -137 24 9 26 14 26 70 l0 60 50 0 50 0 0 -83 c0 -95 -6 -106
-79 -132 -111 -39 -245 -4 -299 78 -22 33 -28 54 -30 116 -3 71 -1 80 30 131
26 43 45 61 87 83 64 32 149 37 209 12z m440 8 l53 -6 -3 -41 -3 -41 -107 -3
-108 -3 0 -39 0 -40 95 0 95 0 0 -45 0 -45 -96 0 -95 0 3 -42 3 -43 103 -3
103 -3 -3 -42 -3 -42 -155 4 c-85 2 -156 5 -158 6 -2 2 0 100 4 219 l7 216
106 0 c58 0 130 -3 159 -7z m523 -3 c54 -15 64 -32 44 -70 -13 -26 -21 -31
-38 -25 -46 15 -137 18 -152 5 -17 -14 -20 -56 -6 -65 6 -3 36 -10 68 -16 108
-20 163 -66 163 -136 0 -41 -34 -89 -79 -113 -47 -23 -172 -27 -231 -7 -32 11
-35 16 -34 50 2 56 14 63 75 44 60 -20 130 -22 147 -5 7 7 12 22 12 34 0 24
-25 36 -105 49 -52 9 -88 28 -114 61 -44 56 -14 150 59 186 39 20 134 24 191
8z m454 -40 l0 -45 -102 3 -103 3 0 -46 0 -45 95 0 95 0 0 -40 c0 -37 -2 -39
-36 -46 -19 -3 -55 -4 -80 0 -64 8 -74 1 -74 -50 l0 -44 115 0 115 0 0 -40 0
-40 -170 0 -170 0 0 213 c0 118 3 217 7 221 4 3 75 5 157 4 l151 -3 0 -45z
m212 1 c18 -20 61 -71 95 -113 35 -42 66 -77 71 -77 4 -1 7 43 7 97 0 139 2
142 61 142 l49 0 -2 -222 c-3 -207 -4 -223 -21 -226 -41 -8 -68 13 -164 127
-56 66 -104 117 -107 114 -3 -4 -6 -60 -6 -125 l0 -118 -50 0 -50 0 0 219 0
220 23 4 c37 7 61 -3 94 -42z m617 43 c70 -10 146 -60 174 -114 29 -58 30
-154 3 -208 -47 -91 -109 -117 -286 -117 l-130 0 -3 210 c-1 115 0 215 2 222
6 14 155 18 240 7z m596 -39 l0 -45 -105 0 -105 0 0 -45 0 -45 95 0 95 0 0
-40 0 -40 -95 0 -95 0 0 -45 c0 -38 3 -45 20 -46 11 -1 25 -3 30 -4 6 -1 48
-3 95 -4 l85 -1 0 -39 0 -39 -62 -6 c-51 -4 -207 -3 -265 3 -10 1 -13 51 -13
214 0 118 3 217 7 220 3 4 75 7 160 7 l153 0 0 -45z m382 17 c64 -31 82 -63
83 -139 0 -58 -2 -64 -37 -100 l-37 -38 39 -63 c22 -35 40 -67 40 -72 0 -6
-25 -10 -55 -10 l-56 0 -40 65 c-39 62 -43 65 -80 65 l-38 0 -3 -62 c-3 -61
-4 -63 -32 -66 -15 -2 -39 -1 -52 2 l-24 6 0 214 c0 117 3 216 8 220 4 4 59 6
122 4 95 -3 123 -7 162 -26z"/>
<path d="M3816 5309 c-3 -34 -6 -160 -6 -280 l0 -219 181 -91 182 -91 46 25
c97 52 186 42 256 -28 46 -46 66 -103 58 -171 l-5 -41 74 -38 c40 -21 169 -90
287 -153 l214 -115 46 23 c25 12 165 86 311 164 146 79 348 187 450 242 102
54 217 115 255 136 39 21 114 61 168 88 l97 50 0 280 c0 243 -2 280 -15 280
-8 0 -111 -51 -228 -114 -540 -289 -802 -429 -924 -492 -156 -80 -139 -81
-333 22 -69 37 -186 99 -260 139 -74 39 -290 156 -481 258 -190 103 -350 187
-356 187 -5 0 -13 -28 -17 -61z"/>
<path d="M4192 2979 c-5 -13 -17 -41 -26 -63 -9 -21 -16 -40 -16 -42 0 -2 27
-4 60 -4 l60 0 -26 58 c-32 73 -41 81 -52 51z"/>
<path d="M6920 2905 l0 -125 65 0 c75 0 128 18 145 51 16 28 16 110 1 138 -22
41 -70 61 -143 61 l-68 0 0 -125z"/>
<path d="M7850 2960 l0 -70 55 0 c46 0 60 4 80 25 32 31 33 78 3 99 -14 10
-44 16 -80 16 l-58 0 0 -70z"/>
</g>
</svg>
